<svg width="18" height="31" viewBox="0 0 18 31" fill="none" xmlns="http://www.w3.org/2000/svg">
<path d="M3.49803 0.600231L16.7446 13.8471C17.1289 14.2313 17.3447 14.7525 17.3447 15.2958C17.3447 15.8392 17.1289 16.3603 16.7446 16.7446L3.49803 29.9915C2.98045 30.5091 2.22601 30.7114 1.51889 30.522C0.811779 30.3326 0.25942 29.7803 0.0698853 29.0733C-0.11965 28.3662 0.0824318 27.6117 0.60001 27.094L12.3979 15.2958L0.60001 3.49767C0.0140915 2.91162 -0.161133 2.03035 0.156036 1.26474C0.473206 0.499126 1.22031 -5.53131e-05 2.04902 -6.67572e-05C2.59266 -0.000778198 3.11416 0.215269 3.49803 0.600231Z" fill="#30CDCC"/>
</svg>
