<svg width="16" height="16" viewBox="0 0 16 16" fill="none" xmlns="http://www.w3.org/2000/svg">
<path d="M0.971221 15.8299C0.722776 15.8299 0.474331 15.735 0.284481 15.5455C-0.0948271 15.1666 -0.0948271 14.5513 0.284481 14.172L14.172 0.284481C14.5513 -0.0948271 15.1658 -0.0948271 15.5455 0.284481C15.9248 0.663399 15.9248 1.27865 15.5455 1.65796L1.65796 15.5455C1.46811 15.7353 1.21967 15.8299 0.971221 15.8299Z" fill="#9B9B9B"/>
<path d="M14.8588 15.8299C14.6103 15.8299 14.3619 15.735 14.172 15.5455L0.284481 1.65796C-0.0948271 1.27904 -0.0948271 0.66379 0.284481 0.284481C0.66379 -0.0948271 1.27826 -0.0948271 1.65796 0.284481L15.5455 14.172C15.9248 14.5509 15.9248 15.1662 15.5455 15.5455C15.3556 15.7353 15.1072 15.8299 14.8588 15.8299Z" fill="#9B9B9B"/>
</svg>
