
<svg version="1.1" width="20px" height="20px" id="Capa_1" xmlns="http://www.w3.org/2000/svg" xmlns:xlink="http://www.w3.org/1999/xlink" x="0px" y="0px"
	 viewBox="0 0 20 20" style="enable-background:new 0 0 20 20;" xml:space="preserve">
<style type="text/css">
	.st0{fill:#98100F;}
</style>
<g>
	<path class="st0" d="M10,0C4.5,0,0,4.5,0,10s4.5,10,10,10s10-4.5,10-10S15.5,0,10,0z M10,18.3c-4.6,0-8.3-3.7-8.3-8.3
		S5.4,1.7,10,1.7s8.3,3.7,8.3,8.3S14.6,18.3,10,18.3z"/>
	<path class="st0" d="M13.9,6.1c-0.3-0.3-0.9-0.3-1.2,0L10,8.8L7.3,6.1C7,5.8,6.5,5.8,6.1,6.1S5.8,7,6.1,7.3L8.8,10l-2.7,2.7
		c-0.3,0.3-0.3,0.9,0,1.2c0.2,0.2,0.4,0.3,0.6,0.3c0.2,0,0.4-0.1,0.6-0.3l2.7-2.7l2.7,2.7c0.2,0.2,0.4,0.3,0.6,0.3
		c0.2,0,0.4-0.1,0.6-0.3c0.3-0.3,0.3-0.9,0-1.2L11.2,10l2.7-2.7C14.2,7,14.2,6.5,13.9,6.1z"/>
</g>
</svg>
