<svg width="20" height="20" viewBox="0 0 20 20" fill="none" xmlns="http://www.w3.org/2000/svg">
<mask id="mask0" mask-type="alpha" maskUnits="userSpaceOnUse" x="0" y="0" width="20" height="20">
<path fill-rule="evenodd" clip-rule="evenodd" d="M14.6739 9.07093L11.0114 9.0176L11.0648 5.35518L9.07093 5.32614L9.0176 8.98857L5.35518 8.93524L5.32614 10.9291L8.98857 10.9824L8.93524 14.6448L10.9291 14.6739L10.9824 11.0114L14.6448 11.0648L14.6739 9.07093ZM10 0C4.47 0 0 4.47 0 10C0 15.53 4.47 20 10 20C15.53 20 20 15.53 20 10C20 4.47 15.53 0 10 0ZM10 18C5.59 18 2 14.41 2 10C2 5.59 5.59 2 10 2C14.41 2 18 5.59 18 10C18 14.41 14.41 18 10 18Z" fill="white"/>
</mask>
<g mask="url(#mask0)">
<rect x="-15" y="-15" width="50" height="50" fill="#4A90E2"/>
<mask id="mask1" mask-type="alpha" maskUnits="userSpaceOnUse" x="-15" y="-15" width="50" height="50">
<rect x="-15" y="-15" width="50" height="50" fill="white"/>
</mask>
<g mask="url(#mask1)">
</g>
</g>
</svg>
