<?xml version="1.0" encoding="utf-8"?>
<svg fill="#FB9A00" width="20px" height="20px" version="1.1" id="Layer_1" xmlns="http://www.w3.org/2000/svg" xmlns:xlink="http://www.w3.org/1999/xlink" x="0px" y="0px"
	 viewBox="0 0 10 18" style="enable-background:new 0 0 10 18;" xml:space="preserve">
<path d="M8.8,18c0.5,0,0.9-0.3,1.1-0.7s0.1-1-0.3-1.3L2.9,9l6.8-6.9C10,1.8,10.1,1.3,10,0.9C9.9,0.5,9.5,0.2,9.1,0
	C8.7-0.1,8.3,0,8,0.4L0.3,8.1C0.1,8.4,0,8.7,0,9c0,0.3,0.1,0.6,0.3,0.9L8,17.6C8.2,17.9,8.5,18,8.8,18z"/>
</svg>
