<svg width="10" height="18" viewBox="0 0 10 18" fill="none" xmlns="http://www.w3.org/2000/svg">
<path d="M2.01678 17.6468L9.65402 9.85242C9.87555 9.62635 10 9.31973 10 9.00001C10 8.68029 9.87555 8.37366 9.65402 8.14759L2.01678 0.353229C1.71838 0.04863 1.28341 -0.0703618 0.875728 0.041077C0.468045 0.152516 0.149587 0.477455 0.0403109 0.893493C-0.068965 1.30953 0.0475445 1.75346 0.345951 2.05806L7.14794 9.00001L0.345951 15.942C0.00814342 16.2868 -0.0928802 16.8053 0.0899811 17.2558C0.272842 17.7063 0.703583 18 1.18137 18C1.4948 18.0004 1.79547 17.8733 2.01678 17.6468Z" fill="#FB9A00"/>
</svg>
