
<svg version="1.1" width="20px" id="Layer_1" xmlns="http://www.w3.org/2000/svg" xmlns:xlink="http://www.w3.org/1999/xlink" x="0px" y="0px"
	 viewBox="0 0 10 6" style="enable-background:new 0 0 10 6;" xml:space="preserve">
<path style="opacity:0.6;enable-background:new;" d="M10,5.1c0-0.1,0-0.2-0.1-0.2L5.2,0.1C5.2,0,5.1,0,5,0S4.8,0,4.8,0.1L0.1,4.9C0,5,0,5.1,0,5.1
	c0,0.1,0,0.2,0.1,0.2l0.5,0.5C0.7,6,0.7,6,0.8,6C0.9,6,1,6,1.1,5.9L5,1.8l3.9,4.1C9,6,9.1,6,9.2,6c0.1,0,0.2,0,0.2-0.1l0.5-0.5
	C10,5.3,10,5.2,10,5.1z"/>
</svg>
